<svg width="2000" height="400" viewBox="0 0 2000 400" fill="none" xmlns="http://www.w3.org/2000/svg">
<rect width="2000" height="400" fill="#F2F3F5"/>
<g clip-path="url(#clip0_38_25175)">
<g opacity="0.2">
<path opacity="0.010101" d="M568.325 289.696C574.485 283.318 575.837 273.699 571.674 265.87L481.061 95.4513C476.898 87.6224 468.167 83.3643 459.435 84.904L269.356 118.42C260.624 119.96 253.877 126.947 252.643 135.727L225.781 326.86C224.547 335.641 229.107 344.217 237.076 348.104L410.554 432.715C418.523 436.602 428.089 434.915 434.248 428.537L568.325 289.696Z" stroke="url(#paint0_linear_38_25175)" stroke-width="1.04958"/>
<path opacity="0.020202" d="M570.682 287.247C576.729 280.763 577.913 271.122 573.614 263.367L480.238 94.9119C475.939 87.1568 467.136 83.0518 458.432 84.7436L269.367 121.494C260.664 123.186 254.039 130.29 252.958 139.091L229.486 330.258C228.405 339.059 233.115 347.554 241.151 351.302L415.708 432.699C423.744 436.447 433.279 434.593 439.327 428.109L570.682 287.247Z" stroke="url(#paint1_linear_38_25175)" stroke-width="1.04958"/>
<path opacity="0.030303" d="M572.984 284.801C578.917 278.211 579.932 268.551 575.499 260.872L479.401 94.426C474.968 86.7471 466.094 82.7963 457.421 84.6398L269.426 124.6C260.753 126.443 254.253 133.662 253.326 142.48L233.236 333.622C232.309 342.441 237.166 350.853 245.266 354.459L420.846 432.632C428.946 436.238 438.447 434.219 444.38 427.63L572.984 284.801Z" stroke="url(#paint2_linear_38_25175)" stroke-width="1.04958"/>
<path opacity="0.040404" d="M575.229 282.356C581.046 275.664 581.893 265.988 577.326 258.388L478.548 93.9936C473.981 86.3933 465.04 82.598 456.401 84.5925L269.528 127.735C260.889 129.73 254.516 137.061 253.744 145.894L237.028 336.952C236.255 345.785 241.258 354.111 249.42 357.575L425.962 432.513C434.123 435.977 443.588 433.792 449.405 427.1L575.229 282.356Z" stroke="url(#paint3_linear_38_25175)" stroke-width="1.04958"/>
<path opacity="0.050505" d="M577.42 279.916C583.119 273.124 583.797 263.434 579.098 255.915L477.682 93.6154C472.984 86.096 463.977 82.4573 455.374 84.6024L269.679 130.901C261.076 133.046 254.832 140.487 254.214 149.332L240.864 340.246C240.245 349.091 245.392 357.329 253.614 360.65L431.058 432.342C439.279 435.664 448.704 433.314 454.403 426.522L577.42 279.916Z" stroke="url(#paint4_linear_38_25175)" stroke-width="1.04958"/>
<path opacity="0.0606061" d="M579.557 277.48C585.137 270.589 585.646 260.889 580.817 253.453L476.806 93.2905C471.977 85.8542 462.908 82.3733 454.344 84.6681L269.879 134.095C261.314 136.39 255.202 143.939 254.737 152.794L244.743 343.504C244.279 352.358 249.569 360.505 257.847 363.682L436.135 432.12C444.412 435.298 453.795 432.784 459.375 425.893L579.557 277.48Z" stroke="url(#paint5_linear_38_25175)" stroke-width="1.04958"/>
<path opacity="0.0707071" d="M581.639 275.05C587.098 268.063 587.437 258.355 582.478 251.004L475.916 93.0195C470.958 85.6686 461.83 82.3464 453.307 84.7904L270.125 137.317C261.602 139.761 255.622 147.415 255.312 156.277L248.662 346.725C248.352 355.586 253.784 363.639 262.116 366.671L441.188 431.848C449.52 434.881 458.857 432.203 464.316 425.216L581.639 275.05Z" stroke="url(#paint6_linear_38_25175)" stroke-width="1.04958"/>
<path opacity="0.0808081" d="M583.665 272.627C589.001 265.545 589.17 255.833 584.085 248.57L475.015 92.8033C469.93 85.5401 460.745 82.3777 452.266 84.97L270.419 140.566C261.94 143.159 256.094 150.916 255.939 159.782L252.62 349.909C252.466 358.774 258.037 366.731 266.421 369.618L446.217 431.526C454.601 434.413 463.89 431.573 469.226 424.492L583.665 272.627Z" stroke="url(#paint7_linear_38_25175)" stroke-width="1.04958"/>
<path opacity="0.0909091" d="M585.636 270.21C590.848 263.037 590.848 253.323 585.636 246.15L474.105 92.6404C468.893 85.4671 459.655 82.4655 451.223 85.2055L270.761 143.841C262.328 146.581 256.619 154.439 256.619 163.306L256.619 353.054C256.619 361.921 262.328 369.779 270.761 372.519L451.223 431.155C459.655 433.895 468.893 430.893 474.105 423.72L585.636 270.21Z" stroke="url(#paint8_linear_38_25175)" stroke-width="1.04958"/>
<path opacity="0.10101" d="M587.553 267.801C592.638 260.538 592.469 250.826 587.133 243.745L473.185 92.5309C467.849 85.4496 458.56 82.6097 450.176 85.4964L271.151 147.14C262.768 150.026 257.196 157.983 257.351 166.848L260.655 356.16C260.81 365.025 266.656 372.783 275.135 375.375L456.202 430.733C464.681 433.326 473.866 430.163 478.952 422.9L587.553 267.801Z" stroke="url(#paint9_linear_38_25175)" stroke-width="1.04958"/>
<path opacity="0.111111" d="M589.417 265.404C594.375 258.053 594.036 248.345 588.577 241.358L472.258 92.4772C466.8 85.4901 457.462 82.8127 449.13 85.8453L271.592 150.464C263.26 153.497 257.828 161.549 258.138 170.411L264.731 359.228C265.041 368.09 271.021 375.744 279.544 378.188L461.158 430.265C469.681 432.709 478.809 429.387 483.767 422.036L589.417 265.404Z" stroke="url(#paint10_linear_38_25175)" stroke-width="1.04958"/>
<path opacity="0.121212" d="M591.227 263.015C596.056 255.578 595.548 245.878 589.968 238.987L471.325 92.4762C465.745 85.5854 456.363 83.0714 448.085 86.249L272.082 153.81C263.804 156.988 258.514 165.134 258.978 173.989L268.845 362.255C269.309 371.11 275.422 378.658 283.986 380.953L466.087 429.747C474.652 432.042 483.72 428.561 488.549 421.125L591.227 263.015Z" stroke="url(#paint11_linear_38_25175)" stroke-width="1.04958"/>
<path opacity="0.131313" d="M592.985 260.639C597.684 253.119 597.006 243.429 591.307 236.637L470.387 92.5312C464.688 85.7389 455.263 83.389 447.042 86.7105L272.623 157.18C264.402 160.502 259.255 168.739 259.873 177.584L272.995 365.243C273.614 374.088 279.858 381.529 288.461 383.674L470.99 429.184C479.593 431.329 488.599 427.69 493.298 420.171L592.985 260.639Z" stroke="url(#paint12_linear_38_25175)" stroke-width="1.04958"/>
<path opacity="0.141414" d="M594.687 258.274C599.254 250.674 598.407 240.997 592.59 234.305L469.442 92.6396C463.625 85.9478 454.16 83.7627 445.998 87.2272L273.212 160.571C265.05 164.035 260.047 172.362 260.82 181.195L277.18 368.189C277.952 377.022 284.325 384.353 292.964 386.348L475.862 428.573C484.502 430.567 493.443 426.772 498.01 419.172L594.687 258.274Z" stroke="url(#paint13_linear_38_25175)" stroke-width="1.04958"/>
<path opacity="0.151515" d="M596.339 255.923C600.772 248.244 599.757 238.584 593.824 231.994L468.495 92.8025C462.562 86.2132 453.061 84.1937 444.96 87.8001L273.852 163.982C265.752 167.589 260.895 176.001 261.822 184.819L281.401 371.094C282.327 379.912 288.827 387.131 297.5 388.974L480.708 427.916C489.381 429.76 498.255 425.809 502.688 418.13L596.339 255.923Z" stroke="url(#paint14_linear_38_25175)" stroke-width="1.04958"/>
<path opacity="0.161616" d="M597.938 253.585C602.237 245.83 601.053 236.189 595.006 229.704L467.545 93.0193C461.498 86.5346 451.963 84.6811 443.927 88.4284L274.544 167.413C266.508 171.16 261.799 179.656 262.88 188.456L285.656 373.956C286.737 382.757 293.361 389.861 302.065 391.553L485.525 427.214C494.228 428.906 503.032 424.801 507.331 417.045L597.938 253.585Z" stroke="url(#paint15_linear_38_25175)" stroke-width="1.04958"/>
<path opacity="0.171717" d="M599.485 251.263C603.647 243.434 602.296 233.815 596.136 227.437L466.593 93.2905C460.433 86.9123 450.867 85.2256 442.898 89.1125L275.286 170.862C267.317 174.749 262.757 183.326 263.991 192.106L289.944 376.777C291.178 385.557 297.926 392.544 306.658 394.084L490.31 426.467C499.042 428.007 507.773 423.748 511.935 415.92L599.485 251.263Z" stroke="url(#paint16_linear_38_25175)" stroke-width="1.04958"/>
<path opacity="0.181818" d="M600.979 248.955C605.005 241.055 603.485 231.461 597.216 225.191L465.639 93.6148C459.369 87.3451 449.775 85.8256 441.875 89.851L276.079 174.328C268.178 178.354 263.769 187.009 265.156 195.766L294.265 379.553C295.652 388.31 302.52 395.179 311.278 396.566L495.064 425.675C503.822 427.062 512.477 422.652 516.502 414.752L600.979 248.955Z" stroke="url(#paint17_linear_38_25175)" stroke-width="1.04958"/>
<path opacity="0.191919" d="M602.423 246.666C606.31 238.696 604.623 229.13 598.245 222.971L464.685 93.9941C458.307 87.8348 448.688 86.4829 440.859 90.6456L276.923 177.812C269.094 181.975 264.836 190.705 266.375 199.437L298.617 382.286C300.156 391.018 307.144 397.766 315.924 399L499.787 424.84C508.567 426.074 517.144 421.514 521.031 413.544L602.423 246.666Z" stroke="url(#paint18_linear_38_25175)" stroke-width="1.04958"/>
<path opacity="0.20202" d="M603.814 244.392C607.561 236.356 605.708 226.821 599.223 220.774L463.731 94.4255C457.246 88.3784 447.605 87.1946 439.85 91.4933L277.817 181.31C270.062 185.609 265.957 194.412 267.648 203.116L302.998 384.974C304.69 393.678 311.794 400.302 320.594 401.383L504.475 423.96C513.276 425.041 521.771 420.332 525.519 412.296L603.814 244.392Z" stroke="url(#paint19_linear_38_25175)" stroke-width="1.04958"/>
<path opacity="0.212121" d="M605.157 242.138C608.764 234.038 606.744 224.537 600.155 218.604L462.782 94.9126C456.192 88.9796 446.532 87.9643 438.853 92.3977L278.765 184.825C271.086 189.258 267.135 198.132 268.979 206.805L307.412 387.619C309.256 396.292 316.474 402.791 325.292 403.718L509.134 423.041C517.952 423.968 526.364 419.111 529.97 411.011L605.157 242.138Z" stroke="url(#paint20_linear_38_25175)" stroke-width="1.04958"/>
<path opacity="0.222222" d="M606.45 239.903C609.914 231.741 607.729 222.277 601.037 216.46L461.834 95.4522C455.143 89.6351 445.466 88.7885 437.866 93.3552L279.765 188.352C272.164 192.919 268.369 201.86 270.364 210.499L311.855 390.218C313.85 398.857 321.18 405.23 330.013 406.003L513.757 422.078C522.59 422.851 530.917 417.848 534.381 409.686L606.45 239.903Z" stroke="url(#paint21_linear_38_25175)" stroke-width="1.04958"/>
<path opacity="0.232323" d="M607.691 237.689C611.012 229.468 608.662 220.043 601.87 214.343L460.889 96.0459C454.096 90.3465 444.407 89.6689 436.887 94.3676L280.814 191.893C273.295 196.592 269.656 205.598 271.801 214.201L316.324 392.772C318.469 401.376 325.91 407.619 334.755 408.238L518.345 421.076C527.19 421.694 535.427 416.547 538.749 408.326L607.691 237.689Z" stroke="url(#paint22_linear_38_25175)" stroke-width="1.04958"/>
<path opacity="0.242424" d="M608.884 235.495C612.062 227.217 609.548 217.835 602.657 212.255L459.95 96.6923C453.059 91.1123 443.359 90.604 435.923 95.4331L281.917 195.445C274.481 200.274 271 209.343 273.295 217.907L320.822 395.281C323.117 403.845 330.666 409.958 339.52 410.422L522.899 420.033C531.753 420.497 539.9 415.206 543.077 406.928L608.884 235.495Z" stroke="url(#paint23_linear_38_25175)" stroke-width="1.04958"/>
<path opacity="0.252525" d="M610.03 233.322C613.062 224.99 610.385 215.653 603.398 210.194L459.017 97.3912C452.03 91.9323 442.322 91.5933 434.971 96.5515L283.073 199.008C275.722 203.966 272.4 213.094 274.844 221.617L325.347 397.742C327.791 406.265 335.445 412.245 344.307 412.555L527.417 418.949C536.279 419.259 544.332 413.827 547.364 405.495L610.03 233.322Z" stroke="url(#paint24_linear_38_25175)" stroke-width="1.04958"/>
<path opacity="0.262626" d="M611.126 231.173C614.013 222.789 611.173 213.5 604.091 208.164L458.089 98.1434C451.008 92.8073 441.296 92.6378 434.033 97.7235L284.28 202.582C277.017 207.667 273.854 216.852 276.447 225.331L329.896 400.157C332.489 408.637 340.246 414.482 349.112 414.637L531.898 417.828C540.764 417.982 548.721 412.411 551.607 404.027L611.126 231.173Z" stroke="url(#paint25_linear_38_25175)" stroke-width="1.04958"/>
<path opacity="0.272727" d="M612.175 229.047C614.915 220.614 611.913 211.376 604.74 206.164L457.17 98.9482C449.997 93.7365 440.283 93.7365 433.11 98.9482L285.54 206.164C278.366 211.376 275.365 220.614 278.105 229.047L334.472 402.526C337.212 410.958 345.07 416.668 353.937 416.668L536.343 416.668C545.21 416.668 553.068 410.958 555.808 402.526L612.175 229.047Z" stroke="url(#paint26_linear_38_25175)" stroke-width="1.04958"/>
<path opacity="0.282828" d="M613.176 226.945C615.769 218.465 612.606 209.281 605.343 204.195L456.258 99.8051C448.995 94.7194 439.283 94.8889 432.202 100.225L286.851 209.755C279.77 215.091 276.93 224.38 279.817 232.763L339.07 404.847C341.957 413.23 349.913 418.802 358.779 418.647L540.75 415.471C549.615 415.316 557.373 409.47 559.965 400.991L613.176 226.945Z" stroke="url(#paint27_linear_38_25175)" stroke-width="1.04958"/>
<path opacity="0.292929" d="M614.132 224.868C616.576 216.345 613.254 207.217 605.903 202.259L455.358 100.715C448.007 95.7565 438.299 96.0955 431.312 101.554L288.217 213.353C281.229 218.812 278.552 228.149 281.585 236.481L343.692 407.12C346.725 415.452 354.778 420.884 363.639 420.575L545.119 414.237C553.981 413.928 561.635 407.948 564.079 399.424L614.132 224.868Z" stroke="url(#paint28_linear_38_25175)" stroke-width="1.04958"/>
<path opacity="0.30303" d="M615.042 222.817C617.337 214.252 613.856 205.184 606.419 200.355L454.466 101.675C447.03 96.8461 437.33 97.3544 430.439 102.934L289.634 216.957C282.743 222.537 280.229 231.919 283.406 240.197L348.337 409.346C351.514 417.624 359.661 422.914 368.515 422.45L549.45 412.967C558.304 412.503 565.853 406.391 568.148 397.826L615.042 222.817Z" stroke="url(#paint29_linear_38_25175)" stroke-width="1.04958"/>
<path opacity="0.313131" d="M615.905 220.792C618.05 212.189 614.412 203.183 606.892 198.484L453.586 102.688C446.067 97.9893 436.377 98.6669 429.585 104.366L291.103 220.566C284.311 226.266 281.961 235.691 285.282 243.912L353.002 411.524C356.323 419.745 364.561 424.892 373.406 424.273L553.741 411.663C562.586 411.045 570.027 404.801 572.172 396.198L615.905 220.792Z" stroke="url(#paint30_linear_38_25175)" stroke-width="1.04958"/>
<path opacity="0.323232" d="M616.724 218.794C618.718 210.155 614.923 201.214 607.323 196.647L452.718 103.751C445.118 99.1842 435.441 100.031 428.749 105.848L292.624 224.179C285.933 229.997 283.748 239.461 287.212 247.623L357.687 413.652C361.152 421.814 369.478 426.816 378.311 426.044L557.992 410.324C566.825 409.551 574.155 403.178 576.15 394.539L616.724 218.794Z" stroke="url(#paint31_linear_38_25175)" stroke-width="1.04958"/>
<path opacity="0.333333" d="M617.498 216.825C619.341 208.152 615.391 199.278 607.712 194.845L451.862 104.865C444.184 100.432 434.523 101.447 427.934 107.38L294.198 227.797C287.609 233.73 285.589 243.231 289.196 251.331L362.392 415.732C365.998 423.832 374.41 428.689 383.229 427.762L562.202 408.951C571.02 408.024 578.239 401.525 580.082 392.852L617.498 216.825Z" stroke="url(#paint32_linear_38_25175)" stroke-width="1.04958"/>
<path opacity="0.343434" d="M618.228 214.884C619.92 206.18 615.815 197.377 608.06 193.078L451.021 106.03C443.266 101.731 433.625 102.915 427.14 108.962L295.824 231.416C289.339 237.463 287.486 246.998 291.233 255.034L367.115 417.763C370.862 425.799 379.358 430.508 388.159 429.427L566.372 407.546C575.172 406.465 582.276 399.841 583.968 391.137L618.228 214.884Z" stroke="url(#paint33_linear_38_25175)" stroke-width="1.04958"/>
<path opacity="0.353535" d="M618.915 212.973C620.455 204.241 616.197 195.511 608.368 191.348L450.194 107.246C442.365 103.083 432.746 104.435 426.368 110.594L297.503 235.038C291.124 241.197 289.438 250.763 293.325 258.732L371.856 419.745C375.743 427.715 384.319 432.275 393.1 431.041L570.5 406.109C579.28 404.875 586.268 398.128 587.807 389.395L618.915 212.973Z" stroke="url(#paint34_linear_38_25175)" stroke-width="1.04958"/>
<path opacity="0.363636" d="M619.56 211.092C620.947 202.334 616.537 193.68 608.637 189.654L449.382 108.51C441.482 104.485 431.888 106.004 425.619 112.274L299.233 238.659C292.964 244.929 291.444 254.523 295.469 262.423L376.614 421.678C380.639 429.578 389.294 433.988 398.052 432.601L574.587 404.64C583.344 403.253 590.213 396.385 591.6 387.627L619.56 211.092Z" stroke="url(#paint35_linear_38_25175)" stroke-width="1.04958"/>
<path opacity="0.373737" d="M620.163 209.242C621.397 200.462 616.837 191.885 608.868 187.998L448.588 109.824C440.618 105.937 431.052 107.624 424.893 114.002L301.016 242.281C294.857 248.659 293.505 258.278 297.667 266.107L381.387 423.561C385.55 431.39 394.28 435.648 403.012 434.108L578.631 403.142C587.363 401.602 594.111 394.615 595.345 385.834L620.163 209.242Z" stroke="url(#paint36_linear_38_25175)" stroke-width="1.04958"/>
<path opacity="0.383838" d="M620.723 207.423C621.803 198.623 617.094 190.127 609.058 186.38L447.808 111.187C439.772 107.44 430.237 109.294 424.19 115.778L302.849 245.901C296.802 252.386 295.618 262.027 299.917 269.782L386.174 425.394C390.473 433.149 399.276 437.254 407.98 435.562L582.631 401.613C591.335 399.922 597.959 392.818 599.04 384.017L620.723 207.423Z" stroke="url(#paint37_linear_38_25175)" stroke-width="1.04958"/>
<path opacity="0.393939" d="M621.244 205.637C622.171 196.819 617.314 188.407 609.214 184.8L447.049 112.6C438.948 108.993 429.447 111.013 423.514 117.602L304.735 249.519C298.802 256.109 297.787 265.769 302.22 273.448L390.976 427.178C395.41 434.857 404.283 438.807 412.956 436.964L586.59 400.057C595.262 398.214 601.762 390.995 602.689 382.177L621.244 205.637Z" stroke="url(#paint38_linear_38_25175)" stroke-width="1.04958"/>
<path opacity="0.40404" d="M621.725 203.882C622.498 195.049 617.495 186.723 609.333 183.258L446.308 114.058C438.146 110.594 428.681 112.779 422.864 119.471L306.673 253.133C300.856 259.825 300.01 269.501 304.576 277.101L395.792 428.909C400.359 436.51 409.3 440.305 417.939 438.31L590.504 398.471C599.144 396.476 605.517 389.145 606.289 380.312L621.725 203.882Z" stroke="url(#paint39_linear_38_25175)" stroke-width="1.04958"/>
<path opacity="0.414141" d="M622.169 202.162C622.787 193.317 617.64 185.08 609.419 181.758L445.589 115.567C437.367 112.245 427.943 114.595 422.243 121.387L308.665 256.744C302.965 263.537 302.288 273.227 306.987 280.746L400.621 430.593C405.32 438.112 414.326 441.751 422.93 439.606L594.377 396.859C602.981 394.714 609.224 387.273 609.843 378.428L622.169 202.162Z" stroke="url(#paint40_linear_38_25175)" stroke-width="1.04958"/>
<path opacity="0.424242" d="M622.571 200.476C623.035 191.622 617.745 183.475 609.467 180.298L444.888 117.122C436.61 113.944 427.227 116.458 421.647 123.349L310.705 260.351C305.125 267.241 304.617 276.942 309.446 284.378L405.46 432.226C410.289 439.662 419.357 443.143 427.922 440.848L598.203 395.221C606.768 392.926 612.881 385.378 613.345 376.523L622.571 200.476Z" stroke="url(#paint41_linear_38_25175)" stroke-width="1.04958"/>
<path opacity="0.434343" d="M622.935 198.825C623.245 189.963 617.813 181.911 609.481 178.878L444.207 118.723C435.875 115.691 426.538 118.368 421.079 125.355L312.796 263.951C307.337 270.938 306.998 280.646 311.957 287.997L410.308 433.808C415.266 441.159 424.394 444.481 432.917 442.037L601.984 393.558C610.508 391.114 616.488 383.46 616.797 374.598L622.935 198.825Z" stroke="url(#paint42_linear_38_25175)" stroke-width="1.04958"/>
<path opacity="0.444444" d="M623.264 197.209C623.419 188.343 617.847 180.387 609.463 177.5L443.551 120.372C435.167 117.485 425.878 120.325 420.542 127.406L314.94 267.545C309.604 274.626 309.434 284.338 314.52 291.601L415.167 435.34C420.253 442.603 429.437 445.766 437.916 443.173L605.722 391.87C614.201 389.278 620.047 381.52 620.201 372.655L623.264 197.209Z" stroke="url(#paint43_linear_38_25175)" stroke-width="1.04958"/>
<path opacity="0.454545" d="M623.555 195.628C623.555 186.762 617.845 178.903 609.413 176.163L442.916 122.065C434.483 119.325 425.245 122.327 420.033 129.5L317.133 271.131C311.921 278.304 311.921 288.017 317.133 295.191L420.033 436.821C425.245 443.995 434.483 446.996 442.916 444.256L609.413 390.158C617.845 387.418 623.555 379.56 623.555 370.693L623.555 195.628Z" stroke="url(#paint44_linear_38_25175)" stroke-width="1.04958"/>
<path opacity="0.464646" d="M623.811 194.085C623.656 185.22 617.81 177.462 609.331 174.87L442.306 123.805C433.826 121.213 424.642 124.375 419.556 131.638L319.377 274.709C314.292 281.972 314.461 291.684 319.797 298.765L424.908 438.253C430.245 445.334 439.534 448.174 447.917 445.287L613.059 388.424C621.442 385.538 627.014 377.581 626.859 368.715L623.811 194.085Z" stroke="url(#paint45_linear_38_25175)" stroke-width="1.04958"/>
<path opacity="0.474747" d="M624.033 192.578C623.723 183.717 617.743 176.062 609.22 173.618L441.721 125.589C433.197 123.145 424.07 126.467 419.111 133.818L321.673 278.277C316.714 285.628 317.053 295.335 322.512 302.323L429.791 439.633C435.25 446.62 444.587 449.297 452.919 446.265L616.659 386.668C624.991 383.635 630.423 375.582 630.114 366.721L624.033 192.578Z" stroke="url(#paint46_linear_38_25175)" stroke-width="1.04958"/>
<path opacity="0.484848" d="M624.218 191.109C623.754 182.254 617.641 174.705 609.077 172.41L441.159 127.417C432.594 125.122 423.526 128.603 418.697 136.039L324.016 281.835C319.187 289.271 319.695 298.971 325.275 305.862L434.677 440.962C440.257 447.853 449.64 450.367 457.918 447.189L620.212 384.89C628.49 381.713 633.78 373.566 633.316 364.712L624.218 191.109Z" stroke="url(#paint47_linear_38_25175)" stroke-width="1.04958"/>
<path opacity="0.494949" d="M624.371 189.677C623.752 180.832 617.508 173.391 608.905 171.246L440.623 129.289C432.02 127.144 423.014 130.782 418.315 138.302L326.409 285.382C321.711 292.901 322.388 302.591 328.088 309.383L439.569 442.241C445.268 449.033 454.693 451.383 462.914 448.061L623.719 383.092C631.94 379.771 637.087 371.533 636.469 362.688L624.371 189.677Z" stroke="url(#paint48_linear_38_25175)" stroke-width="1.04958"/>
<path opacity="0.50505" d="M624.49 188.285C623.717 179.452 617.344 172.121 608.705 170.127L440.114 131.204C431.474 129.21 422.533 133.005 417.966 140.605L328.852 288.917C324.285 296.518 325.132 306.194 330.949 312.886L444.464 443.47C450.281 450.162 459.745 452.347 467.907 448.882L627.178 381.276C635.34 377.811 640.343 369.485 639.57 360.652L624.49 188.285Z" stroke="url(#paint49_linear_38_25175)" stroke-width="1.04958"/>
<path opacity="0.515152" d="M624.578 186.932C623.651 178.114 617.152 170.895 608.479 169.052L439.633 133.163C430.96 131.319 422.086 135.27 417.653 142.949L331.344 292.44C326.911 300.119 327.926 309.779 333.859 316.368L449.363 444.648C455.296 451.238 464.797 453.257 472.897 449.651L630.591 379.441C638.692 375.834 643.548 367.422 642.622 358.604L624.578 186.932Z" stroke="url(#paint50_linear_38_25175)" stroke-width="1.04958"/>
<path opacity="0.525253" d="M624.634 185.618C623.554 176.817 616.929 169.714 608.225 168.022L439.179 135.163C430.476 133.471 421.672 137.576 417.374 145.331L333.885 295.949C329.586 303.704 330.77 313.345 336.817 319.83L454.264 445.776C460.311 452.261 469.846 454.114 477.882 450.367L633.957 377.588C641.993 373.84 646.702 365.345 645.621 356.544L624.634 185.618Z" stroke="url(#paint51_linear_38_25175)" stroke-width="1.04958"/>
<path opacity="0.535354" d="M624.66 184.344C623.426 175.564 616.679 168.577 607.947 167.037L438.755 137.204C430.023 135.664 421.293 139.922 417.13 147.751L336.474 299.443C332.311 307.272 333.663 316.891 339.822 323.269L459.166 446.853C465.325 453.231 474.891 454.918 482.861 451.031L637.275 375.718C645.244 371.831 649.805 363.255 648.571 354.474L624.66 184.344Z" stroke="url(#paint52_linear_38_25175)" stroke-width="1.04958"/>
<path opacity="0.545455" d="M624.655 183.111C623.268 174.353 616.4 167.485 607.642 166.098L438.358 139.286C429.6 137.899 420.946 142.309 416.92 150.209L339.109 302.922C335.084 310.822 336.603 320.416 342.873 326.686L464.067 447.88C470.336 454.15 479.93 455.669 487.831 451.644L640.544 373.832C648.444 369.807 652.854 361.152 651.467 352.395L624.655 183.111Z" stroke="url(#paint53_linear_38_25175)" stroke-width="1.04958"/>
<path opacity="0.555556" d="M624.622 181.918C623.083 173.186 616.095 166.438 607.315 165.204L437.993 141.408C429.212 140.174 420.636 144.734 416.749 152.703L341.794 306.384C337.907 314.354 339.593 323.92 345.972 330.079L468.969 448.856C475.347 455.015 484.966 456.367 492.795 452.205L643.767 371.931C651.595 367.769 655.854 359.038 654.314 350.306L624.622 181.918Z" stroke="url(#paint54_linear_38_25175)" stroke-width="1.04958"/>
<path opacity="0.565657" d="M624.561 180.768C622.869 172.064 615.765 165.439 606.964 164.359L437.658 143.57C428.857 142.49 420.361 147.199 416.614 155.235L344.525 309.832C340.777 317.868 342.631 327.402 349.115 333.45L473.869 449.784C480.353 455.831 489.994 457.015 497.749 452.716L646.94 370.018C654.696 365.719 658.801 356.916 657.109 348.212L624.561 180.768Z" stroke="url(#paint55_linear_38_25175)" stroke-width="1.04958"/>
<path opacity="0.575758" d="M624.473 179.658C622.629 170.985 615.411 164.486 606.593 163.559L437.354 145.771C428.536 144.844 420.124 149.701 416.518 157.801L347.303 313.26C343.697 321.36 345.716 330.861 352.306 336.794L478.767 450.66C485.356 456.593 495.016 457.609 502.695 453.175L650.067 368.09C657.746 363.657 661.697 354.783 659.853 346.11L624.473 179.658Z" stroke="url(#paint56_linear_38_25175)" stroke-width="1.04958"/>
<path opacity="0.585859" d="M624.356 178.592C622.362 169.952 615.031 163.579 606.198 162.807L437.081 148.011C428.248 147.238 419.922 152.241 416.458 160.403L350.126 316.67C346.662 324.832 348.847 334.296 355.539 340.114L483.66 451.488C490.352 457.305 500.028 458.151 507.629 453.585L653.143 366.151C660.744 361.584 664.539 352.643 662.545 344.003L624.356 178.592Z" stroke="url(#paint57_linear_38_25175)" stroke-width="1.04958"/>
<path opacity="0.59596" d="M624.216 177.566C622.071 168.963 614.63 162.719 605.785 162.101L436.842 150.287C427.997 149.668 419.76 154.816 416.438 163.037L352.997 320.06C349.675 328.281 352.025 337.706 358.818 343.405L488.551 452.264C495.343 457.964 505.033 458.641 512.552 453.943L656.173 364.198C663.693 359.5 667.331 350.494 665.186 341.89L624.216 177.566Z" stroke="url(#paint58_linear_38_25175)" stroke-width="1.04958"/>
<path opacity="0.606061" d="M624.049 176.585C621.755 168.02 614.206 161.908 605.351 161.444L436.636 152.602C427.781 152.138 419.635 157.428 416.457 165.706L355.912 323.431C352.735 331.709 355.249 341.091 362.139 346.671L493.436 452.993C500.327 458.573 510.027 459.081 517.463 454.252L659.154 362.237C666.59 357.408 670.071 348.34 667.776 339.775L624.049 176.585Z" stroke="url(#paint59_linear_38_25175)" stroke-width="1.04958"/>
<path opacity="0.616162" d="M623.86 175.647C621.416 167.123 613.761 161.143 604.9 160.834L436.464 154.952C427.602 154.642 419.549 160.074 416.517 168.406L358.873 326.781C355.841 335.113 358.518 344.45 365.505 349.909L498.316 453.672C505.303 459.131 515.01 459.47 522.361 454.511L662.086 360.266C669.437 355.307 672.759 346.18 670.315 337.657L623.86 175.647Z" stroke="url(#paint60_linear_38_25175)" stroke-width="1.04958"/>
<path opacity="0.626263" d="M623.644 174.752C621.052 166.273 613.294 160.427 604.429 160.272L436.324 157.338C427.458 157.183 419.501 162.755 416.615 171.138L361.877 330.109C358.99 338.493 361.83 347.782 368.911 353.118L503.187 454.302C510.268 459.638 519.98 459.808 527.243 454.722L664.968 358.286C672.231 353.2 675.393 344.016 672.801 335.537L623.644 174.752Z" stroke="url(#paint61_linear_38_25175)" stroke-width="1.04958"/>
<path opacity="0.636364" d="M623.408 173.902C620.668 165.469 612.81 159.76 603.943 159.76L436.22 159.76C427.353 159.76 419.495 165.469 416.755 173.902L364.925 333.416C362.185 341.849 365.187 351.087 372.36 356.299L508.051 454.884C515.225 460.096 524.938 460.096 532.111 454.884L667.802 356.299C674.976 351.087 677.977 341.849 675.237 333.416L623.408 173.902Z" stroke="url(#paint62_linear_38_25175)" stroke-width="1.04958"/>
<path opacity="0.646465" d="M623.151 173.095C620.264 164.712 612.307 159.14 603.442 159.295L436.152 162.215C427.287 162.37 419.529 168.215 416.937 176.695L368.018 336.699C365.426 345.178 368.588 354.363 375.852 359.448L512.908 455.417C520.171 460.502 529.883 460.333 536.965 454.997L670.589 354.304C677.67 348.968 680.51 339.679 677.623 331.295L623.151 173.095Z" stroke="url(#paint63_linear_38_25175)" stroke-width="1.04958"/>
<path opacity="0.656566" d="M622.873 172.333C619.84 164.001 611.787 158.569 602.926 158.879L436.12 164.704C427.259 165.013 419.604 170.993 417.16 179.517L371.154 339.958C368.71 348.482 372.033 357.609 379.383 362.568L517.756 455.901C525.107 460.859 534.814 460.52 541.801 455.061L673.326 352.303C680.313 346.844 682.991 337.507 679.958 329.175L622.873 172.333Z" stroke="url(#paint64_linear_38_25175)" stroke-width="1.04958"/>
<path opacity="0.666667" d="M622.574 171.615C619.396 163.337 611.25 158.047 602.395 158.511L436.124 167.225C427.269 167.689 419.721 173.801 417.426 182.366L374.332 343.192C372.037 351.757 375.518 360.825 382.955 365.654L522.593 456.337C530.029 461.166 539.729 460.657 546.62 455.077L676.015 350.296C682.905 344.716 685.419 335.333 682.242 327.055L622.574 171.615Z" stroke="url(#paint65_linear_38_25175)" stroke-width="1.04958"/>
<path opacity="0.676768" d="M622.257 170.943C618.935 162.722 610.698 157.574 601.852 158.193L436.165 169.779C427.32 170.397 419.879 176.641 417.734 185.245L377.553 346.403C375.408 355.006 379.047 364.012 386.566 368.711L527.42 456.726C534.939 461.425 544.629 460.747 551.421 455.048L678.655 348.286C685.447 342.586 687.797 333.162 684.476 324.94L622.257 170.943Z" stroke="url(#paint66_linear_38_25175)" stroke-width="1.04958"/>
<path opacity="0.686869" d="M621.919 170.316C618.454 162.154 610.128 157.151 601.295 157.924L436.242 172.364C427.409 173.137 420.078 179.509 418.084 188.149L380.813 349.586C378.818 358.226 382.614 367.167 390.214 371.734L532.233 457.067C539.833 461.634 549.509 460.787 556.201 454.97L681.244 346.272C687.936 340.455 690.121 330.99 686.657 322.828L621.919 170.316Z" stroke="url(#paint67_linear_38_25175)" stroke-width="1.04958"/>
<path opacity="0.69697" d="M621.567 169.734C617.961 161.633 609.548 156.777 600.73 157.703L436.36 174.98C427.542 175.906 420.323 182.406 418.48 191.079L384.117 352.743C382.273 361.416 386.224 370.29 393.903 374.723L537.036 457.361C544.715 461.795 554.375 460.779 560.964 454.846L683.788 344.255C690.378 338.322 692.397 328.821 688.791 320.721L621.567 169.734Z" stroke="url(#paint68_linear_38_25175)" stroke-width="1.04958"/>
<path opacity="0.707071" d="M621.195 169.198C617.448 161.162 608.952 156.453 600.151 157.534L436.512 177.626C427.712 178.707 420.608 185.331 418.916 194.035L387.458 355.874C385.766 364.578 389.871 373.381 397.626 377.68L541.823 457.609C549.578 461.908 559.219 460.724 565.703 454.677L686.28 342.237C692.765 336.19 694.618 326.655 690.871 318.619L621.195 169.198Z" stroke="url(#paint69_linear_38_25175)" stroke-width="1.04958"/>
<path opacity="0.717172" d="M620.811 168.708C616.924 160.738 608.347 156.178 599.567 157.412L436.707 180.3C427.927 181.534 420.939 188.282 419.4 197.014L390.841 358.976C389.302 367.708 393.56 376.438 401.389 380.601L546.599 457.81C554.427 461.973 564.046 460.621 570.425 454.462L688.727 340.218C695.106 334.059 696.792 324.493 692.905 316.523L620.811 168.708Z" stroke="url(#paint70_linear_38_25175)" stroke-width="1.04958"/>
<path opacity="0.727273" d="M620.408 168.264C616.383 160.364 607.728 155.954 598.971 157.341L436.938 183.004C428.181 184.391 421.312 191.26 419.925 200.017L394.262 362.05C392.875 370.807 397.284 379.462 405.185 383.488L551.356 457.966C559.257 461.991 568.851 460.472 575.12 454.202L691.123 338.2C697.393 331.93 698.912 322.336 694.887 314.436L620.408 168.264Z" stroke="url(#paint71_linear_38_25175)" stroke-width="1.04958"/>
<path opacity="0.737374" d="M619.994 167.866C615.831 160.037 607.101 155.779 598.369 157.318L437.211 185.735C428.479 187.275 421.731 194.262 420.497 203.042L397.722 365.094C396.488 373.875 401.048 382.451 409.018 386.338L556.1 458.075C564.07 461.962 573.636 460.275 579.795 453.897L693.472 336.181C699.631 329.803 700.983 320.184 696.82 312.355L619.994 167.866Z" stroke="url(#paint72_linear_38_25175)" stroke-width="1.04958"/>
<path opacity="0.747475" d="M619.566 167.515C615.267 159.76 606.464 155.655 597.76 157.347L437.522 188.494C428.818 190.186 422.194 197.29 421.113 206.09L401.22 368.11C400.139 376.911 404.848 385.406 412.884 389.154L560.827 458.14C568.863 461.888 578.398 460.034 584.445 453.549L695.772 334.166C701.819 327.681 703.003 318.04 698.704 310.285L619.566 167.515Z" stroke="url(#paint73_linear_38_25175)" stroke-width="1.04958"/>
<path opacity="0.757576" d="M619.125 167.209C614.692 159.53 605.818 155.579 597.145 157.423L437.875 191.277C429.202 193.12 422.702 200.339 421.775 209.157L404.755 371.094C403.828 379.912 408.685 388.324 416.785 391.93L565.537 458.159C573.637 461.765 583.138 459.746 589.071 453.156L698.025 332.151C703.958 325.562 704.973 315.902 700.54 308.223L619.125 167.209Z" stroke="url(#paint74_linear_38_25175)" stroke-width="1.04958"/>
<path opacity="0.767677" d="M618.673 166.951C614.106 159.35 605.165 155.555 596.525 157.55L438.267 194.086C429.628 196.081 423.255 203.412 422.482 212.245L408.326 374.048C407.554 382.881 412.556 391.207 420.718 394.671L570.228 458.134C578.389 461.598 587.854 459.413 593.671 452.722L700.229 330.141C706.046 323.449 706.892 313.773 702.326 306.172L618.673 166.951Z" stroke="url(#paint75_linear_38_25175)" stroke-width="1.04958"/>
<path opacity="0.777778" d="M618.21 166.739C613.511 159.22 604.505 155.581 595.902 157.726L438.701 196.92C430.098 199.066 423.854 206.506 423.236 215.352L411.934 376.97C411.316 385.815 416.463 394.053 424.684 397.374L574.9 458.065C583.121 461.387 592.546 459.037 598.246 452.245L702.386 328.135C708.085 321.343 708.763 311.653 704.064 304.134L618.21 166.739Z" stroke="url(#paint76_linear_38_25175)" stroke-width="1.04958"/>
<path opacity="0.787879" d="M617.737 166.575C612.908 159.139 603.84 155.658 595.275 157.953L439.177 199.779C430.612 202.074 424.499 209.623 424.035 218.477L415.577 379.861C415.113 388.715 420.404 396.862 428.682 400.039L579.553 457.953C587.831 461.131 597.213 458.617 602.793 451.726L704.495 326.136C710.075 319.245 710.583 309.545 705.754 302.108L617.737 166.575Z" stroke="url(#paint77_linear_38_25175)" stroke-width="1.04958"/>
<path opacity="0.79798" d="M617.257 166.456C612.298 159.105 603.171 155.783 594.647 158.227L439.695 202.659C431.171 205.103 425.191 212.757 424.882 221.619L419.256 382.718C418.947 391.579 424.378 399.632 432.71 402.665L584.186 457.797C592.518 460.83 601.855 458.153 607.314 451.165L706.557 324.14C712.016 317.153 712.355 307.446 707.397 300.095L617.257 166.456Z" stroke="url(#paint78_linear_38_25175)" stroke-width="1.04958"/>
<path opacity="0.808081" d="M616.767 166.385C611.682 159.122 602.497 155.96 594.018 158.552L440.254 205.562C431.775 208.155 425.929 215.912 425.775 224.778L422.968 385.542C422.814 394.408 428.385 402.365 436.769 405.251L588.798 457.599C597.182 460.486 606.471 457.646 611.807 450.565L708.572 322.153C713.909 315.071 714.078 305.359 708.992 298.096L616.767 166.385Z" stroke="url(#paint79_linear_38_25175)" stroke-width="1.04958"/>
<path opacity="0.818182" d="M616.27 166.36C611.058 159.186 601.82 156.185 593.387 158.925L440.855 208.485C432.422 211.225 426.713 219.084 426.713 227.95L426.713 388.332C426.713 397.199 432.422 405.057 440.855 407.797L593.387 457.358C601.82 460.098 611.058 457.096 616.27 449.923L710.54 320.171C715.751 312.998 715.751 303.285 710.54 296.111L616.27 166.36Z" stroke="url(#paint80_linear_38_25175)" stroke-width="1.04958"/>
<path opacity="0.828283" d="M615.768 166.383C610.431 159.302 601.142 156.462 592.759 159.349L441.501 211.431C433.117 214.318 427.546 222.275 427.7 231.14L430.492 391.089C430.647 399.955 436.493 407.712 444.972 410.304L597.956 457.076C606.435 459.669 615.619 456.506 620.705 449.243L712.462 318.2C717.548 310.937 717.378 301.225 712.042 294.144L615.768 166.383Z" stroke="url(#paint81_linear_38_25175)" stroke-width="1.04958"/>
<path opacity="0.838384" d="M615.259 166.452C609.8 159.465 600.463 156.788 592.131 159.82L442.188 214.395C433.856 217.427 428.424 225.48 428.734 234.342L434.302 393.81C434.612 402.672 440.592 410.326 449.115 412.77L602.5 456.752C611.023 459.196 620.151 455.874 625.109 448.523L714.337 316.237C719.295 308.886 718.956 299.179 713.497 292.192L615.259 166.452Z" stroke="url(#paint82_linear_38_25175)" stroke-width="1.04958"/>
<path opacity="0.848485" d="M614.745 166.569C609.165 159.678 599.783 157.164 591.505 160.342L442.918 217.379C434.64 220.556 429.35 228.703 429.814 237.557L438.144 396.497C438.608 405.352 444.721 412.9 453.285 415.195L607.02 456.388C615.585 458.683 624.653 455.202 629.482 447.766L716.166 314.285C720.995 306.849 720.487 297.148 714.907 290.258L614.745 166.569Z" stroke="url(#paint83_linear_38_25175)" stroke-width="1.04958"/>
<path opacity="0.858586" d="M614.229 166.731C608.529 159.939 599.104 157.589 590.883 160.911L443.693 220.379C435.472 223.701 430.324 231.938 430.943 240.784L442.017 399.147C442.635 407.992 448.879 415.433 457.482 417.578L611.517 455.983C620.12 458.128 629.126 454.489 633.825 446.97L717.95 312.342C722.648 304.823 721.971 295.133 716.271 288.341L614.229 166.731Z" stroke="url(#paint84_linear_38_25175)" stroke-width="1.04958"/>
<path opacity="0.868687" d="M613.709 166.942C607.892 160.25 598.427 158.065 590.266 161.53L444.511 223.399C436.349 226.863 431.346 235.189 432.119 244.022L445.919 401.762C446.692 410.595 453.065 417.926 461.704 419.92L615.988 455.54C624.628 457.534 633.569 453.739 638.136 446.139L719.688 310.413C724.255 302.812 723.408 293.136 717.591 286.444L613.709 166.942Z" stroke="url(#paint85_linear_38_25175)" stroke-width="1.04958"/>
<path opacity="0.878788" d="M613.186 167.199C607.253 160.61 597.752 158.59 589.652 162.197L445.372 226.434C437.271 230.041 432.415 238.453 433.342 247.271L449.85 404.34C450.777 413.158 457.277 420.377 465.95 422.22L620.433 455.057C629.106 456.9 637.979 452.949 642.413 445.27L721.38 308.495C725.813 300.816 724.798 291.156 718.865 284.567L613.186 167.199Z" stroke="url(#paint86_linear_38_25175)" stroke-width="1.04958"/>
<path opacity="0.888889" d="M612.664 167.502C606.616 161.018 597.081 159.164 589.045 162.912L446.278 229.485C438.242 233.232 433.533 241.728 434.613 250.529L453.811 406.881C454.892 415.681 461.516 422.785 470.22 424.477L624.852 454.535C633.556 456.227 642.359 452.121 646.658 444.366L723.028 306.591C727.327 298.836 726.143 289.195 720.096 282.71L612.664 167.502Z" stroke="url(#paint87_linear_38_25175)" stroke-width="1.04958"/>
<path opacity="0.89899" d="M612.139 167.853C605.98 161.475 596.414 159.788 588.445 163.675L447.227 232.551C439.258 236.438 434.698 245.015 435.932 253.795L457.799 409.385C459.033 418.165 465.78 425.152 474.512 426.692L629.244 453.975C637.976 455.515 646.706 451.257 650.869 443.428L724.631 304.701C728.794 296.872 727.442 287.253 721.283 280.875L612.139 167.853Z" stroke="url(#paint88_linear_38_25175)" stroke-width="1.04958"/>
<path opacity="0.909091" d="M611.615 168.25C605.345 161.98 595.751 160.46 587.851 164.486L448.221 235.631C440.32 239.656 435.911 248.311 437.298 257.069L461.813 411.85C463.2 420.607 470.068 427.476 478.826 428.863L633.607 453.378C642.365 454.765 651.019 450.355 655.045 442.455L726.19 302.825C730.215 294.924 728.696 285.33 722.426 279.061L611.615 168.25Z" stroke="url(#paint89_linear_38_25175)" stroke-width="1.04958"/>
<path opacity="0.919192" d="M611.092 168.693C604.714 162.534 595.095 161.182 587.266 165.344L449.259 238.724C441.43 242.887 437.172 251.617 438.712 260.349L465.854 414.277C467.393 423.009 474.381 429.757 483.161 430.991L637.943 452.744C646.723 453.978 655.3 449.418 659.187 441.449L727.705 300.965C731.592 292.995 729.905 283.429 723.527 277.27L611.092 168.693Z" stroke="url(#paint90_linear_38_25175)" stroke-width="1.04958"/>
<path opacity="0.929293" d="M610.571 169.182C604.087 163.135 594.445 161.951 586.69 166.25L450.342 241.83C442.587 246.128 438.482 254.932 440.173 263.635L469.92 416.666C471.611 425.37 478.715 431.994 487.516 433.075L642.249 452.074C651.05 453.154 659.545 448.445 663.292 440.409L729.176 299.121C732.924 291.084 731.07 281.55 724.586 275.502L610.571 169.182Z" stroke="url(#paint91_linear_38_25175)" stroke-width="1.04958"/>
<path opacity="0.939394" d="M610.055 169.718C603.466 163.785 593.806 162.77 586.127 167.203L451.471 244.947C443.792 249.38 439.842 258.254 441.685 266.927L474.013 419.016C475.856 427.689 483.075 434.188 491.893 435.115L646.528 451.368C655.346 452.295 663.758 447.438 667.365 439.338L730.607 297.294C734.213 289.193 732.194 279.692 725.605 273.759L610.055 169.718Z" stroke="url(#paint92_linear_38_25175)" stroke-width="1.04958"/>
<path opacity="0.949495" d="M609.54 170.301C602.848 164.484 593.172 163.637 585.572 168.204L452.643 248.075C445.043 252.642 441.247 261.583 443.242 270.223L478.127 421.327C480.122 429.967 487.452 436.339 496.285 437.112L650.774 450.628C659.607 451.401 667.933 446.398 671.398 438.236L731.992 295.485C735.457 287.323 733.272 277.859 726.58 272.042L609.54 170.301Z" stroke="url(#paint93_linear_38_25175)" stroke-width="1.04958"/>
<path opacity="0.959596" d="M609.032 170.927C602.239 165.228 592.549 164.55 585.03 169.249L453.861 251.212C446.342 255.911 442.703 264.917 444.848 273.521L482.267 423.597C484.412 432.201 491.853 438.444 500.698 439.063L654.992 449.852C663.837 450.471 672.075 445.323 675.396 437.102L733.337 293.694C736.659 285.473 734.309 276.048 727.517 270.348L609.032 170.927Z" stroke="url(#paint94_linear_38_25175)" stroke-width="1.04958"/>
<path opacity="0.969697" d="M608.527 171.601C601.636 166.021 591.936 165.512 584.5 170.342L455.124 254.36C447.688 259.189 444.207 268.257 446.501 276.822L486.428 425.829C488.723 434.393 496.271 440.506 505.126 440.97L659.178 449.044C668.033 449.508 676.179 444.217 679.357 435.94L734.64 291.922C737.817 283.644 735.303 274.262 728.412 268.682L608.527 171.601Z" stroke="url(#paint95_linear_38_25175)" stroke-width="1.04958"/>
<path opacity="0.979798" d="M608.029 172.318C601.042 166.859 591.334 166.52 583.983 171.478L456.431 257.513C449.08 262.471 445.758 271.599 448.202 280.122L490.61 428.018C493.054 436.541 500.709 442.521 509.57 442.831L663.332 448.2C672.193 448.51 680.246 443.078 683.279 434.746L735.9 290.169C738.933 281.837 736.256 272.5 729.269 267.041L608.029 172.318Z" stroke="url(#paint96_linear_38_25175)" stroke-width="1.04958"/>
<path opacity="0.989899" d="M607.54 173.082C600.458 167.746 590.746 167.577 583.483 172.663L457.786 260.677C450.523 265.762 447.361 274.947 449.953 283.426L494.817 430.169C497.409 438.648 505.167 444.494 514.032 444.648L667.456 447.326C676.322 447.481 684.279 441.91 687.165 433.526L737.123 288.438C740.01 280.055 737.17 270.766 730.088 265.43L607.54 173.082Z" stroke="url(#paint97_linear_38_25175)" stroke-width="1.04958"/>
<path d="M607.056 173.891C599.883 168.679 590.169 168.679 582.996 173.891L459.184 263.846C452.011 269.057 449.009 278.295 451.749 286.728L499.041 432.278C501.781 440.71 509.639 446.42 518.506 446.42L671.546 446.42C680.412 446.42 688.271 440.71 691.011 432.278L738.303 286.728C741.043 278.295 738.041 269.057 730.868 263.846L607.056 173.891Z" stroke="url(#paint98_linear_38_25175)" stroke-width="1.04958"/>
</g>
</g>
<defs>
<linearGradient id="paint0_linear_38_25175" x1="375.186" y1="362.434" x2="406.661" y2="138.474" gradientUnits="userSpaceOnUse">
<stop stop-color="#1E68F0"/>
<stop offset="1" stop-color="#0CD8E5"/>
</linearGradient>
<linearGradient id="paint1_linear_38_25175" x1="379.211" y1="363.187" x2="406.723" y2="139.121" gradientUnits="userSpaceOnUse">
<stop stop-color="#1E68F0"/>
<stop offset="1" stop-color="#0CD8E5"/>
</linearGradient>
<linearGradient id="paint2_linear_38_25175" x1="383.234" y1="363.905" x2="406.788" y2="139.804" gradientUnits="userSpaceOnUse">
<stop stop-color="#1E68F0"/>
<stop offset="1" stop-color="#0CD8E5"/>
</linearGradient>
<linearGradient id="paint3_linear_38_25175" x1="387.253" y1="364.589" x2="406.856" y2="140.522" gradientUnits="userSpaceOnUse">
<stop stop-color="#1E68F0"/>
<stop offset="1" stop-color="#0CD8E5"/>
</linearGradient>
<linearGradient id="paint4_linear_38_25175" x1="391.268" y1="365.239" x2="406.929" y2="141.276" gradientUnits="userSpaceOnUse">
<stop stop-color="#1E68F0"/>
<stop offset="1" stop-color="#0CD8E5"/>
</linearGradient>
<linearGradient id="paint5_linear_38_25175" x1="395.281" y1="365.855" x2="407.01" y2="142.065" gradientUnits="userSpaceOnUse">
<stop stop-color="#1E68F0"/>
<stop offset="1" stop-color="#0CD8E5"/>
</linearGradient>
<linearGradient id="paint6_linear_38_25175" x1="399.287" y1="366.437" x2="407.094" y2="142.888" gradientUnits="userSpaceOnUse">
<stop stop-color="#1E68F0"/>
<stop offset="1" stop-color="#0CD8E5"/>
</linearGradient>
<linearGradient id="paint7_linear_38_25175" x1="403.287" y1="366.986" x2="407.184" y2="143.748" gradientUnits="userSpaceOnUse">
<stop stop-color="#1E68F0"/>
<stop offset="1" stop-color="#0CD8E5"/>
</linearGradient>
<linearGradient id="paint8_linear_38_25175" x1="407.281" y1="367.501" x2="407.281" y2="144.641" gradientUnits="userSpaceOnUse">
<stop stop-color="#1E68F0"/>
<stop offset="1" stop-color="#0CD8E5"/>
</linearGradient>
<linearGradient id="paint9_linear_38_25175" x1="411.267" y1="367.981" x2="407.384" y2="145.568" gradientUnits="userSpaceOnUse">
<stop stop-color="#1E68F0"/>
<stop offset="1" stop-color="#0CD8E5"/>
</linearGradient>
<linearGradient id="paint10_linear_38_25175" x1="415.246" y1="368.43" x2="407.497" y2="146.532" gradientUnits="userSpaceOnUse">
<stop stop-color="#1E68F0"/>
<stop offset="1" stop-color="#0CD8E5"/>
</linearGradient>
<linearGradient id="paint11_linear_38_25175" x1="419.218" y1="368.845" x2="407.619" y2="147.527" gradientUnits="userSpaceOnUse">
<stop stop-color="#1E68F0"/>
<stop offset="1" stop-color="#0CD8E5"/>
</linearGradient>
<linearGradient id="paint12_linear_38_25175" x1="423.181" y1="369.229" x2="407.751" y2="148.559" gradientUnits="userSpaceOnUse">
<stop stop-color="#1E68F0"/>
<stop offset="1" stop-color="#0CD8E5"/>
</linearGradient>
<linearGradient id="paint13_linear_38_25175" x1="427.133" y1="369.579" x2="407.89" y2="149.623" gradientUnits="userSpaceOnUse">
<stop stop-color="#1E68F0"/>
<stop offset="1" stop-color="#0CD8E5"/>
</linearGradient>
<linearGradient id="paint14_linear_38_25175" x1="431.078" y1="369.897" x2="408.041" y2="150.721" gradientUnits="userSpaceOnUse">
<stop stop-color="#1E68F0"/>
<stop offset="1" stop-color="#0CD8E5"/>
</linearGradient>
<linearGradient id="paint15_linear_38_25175" x1="435.012" y1="370.183" x2="408.204" y2="151.852" gradientUnits="userSpaceOnUse">
<stop stop-color="#1E68F0"/>
<stop offset="1" stop-color="#0CD8E5"/>
</linearGradient>
<linearGradient id="paint16_linear_38_25175" x1="438.934" y1="370.438" x2="408.378" y2="153.017" gradientUnits="userSpaceOnUse">
<stop stop-color="#1E68F0"/>
<stop offset="1" stop-color="#0CD8E5"/>
</linearGradient>
<linearGradient id="paint17_linear_38_25175" x1="442.845" y1="370.66" x2="408.563" y2="154.213" gradientUnits="userSpaceOnUse">
<stop stop-color="#1E68F0"/>
<stop offset="1" stop-color="#0CD8E5"/>
</linearGradient>
<linearGradient id="paint18_linear_38_25175" x1="446.744" y1="370.852" x2="408.761" y2="155.442" gradientUnits="userSpaceOnUse">
<stop stop-color="#1E68F0"/>
<stop offset="1" stop-color="#0CD8E5"/>
</linearGradient>
<linearGradient id="paint19_linear_38_25175" x1="450.628" y1="371.011" x2="408.971" y2="156.702" gradientUnits="userSpaceOnUse">
<stop stop-color="#1E68F0"/>
<stop offset="1" stop-color="#0CD8E5"/>
</linearGradient>
<linearGradient id="paint20_linear_38_25175" x1="454.503" y1="371.141" x2="409.197" y2="157.996" gradientUnits="userSpaceOnUse">
<stop stop-color="#1E68F0"/>
<stop offset="1" stop-color="#0CD8E5"/>
</linearGradient>
<linearGradient id="paint21_linear_38_25175" x1="458.363" y1="371.24" x2="409.438" y2="159.32" gradientUnits="userSpaceOnUse">
<stop stop-color="#1E68F0"/>
<stop offset="1" stop-color="#0CD8E5"/>
</linearGradient>
<linearGradient id="paint22_linear_38_25175" x1="462.207" y1="371.31" x2="409.69" y2="160.677" gradientUnits="userSpaceOnUse">
<stop stop-color="#1E68F0"/>
<stop offset="1" stop-color="#0CD8E5"/>
</linearGradient>
<linearGradient id="paint23_linear_38_25175" x1="466.038" y1="371.349" x2="409.96" y2="162.063" gradientUnits="userSpaceOnUse">
<stop stop-color="#1E68F0"/>
<stop offset="1" stop-color="#0CD8E5"/>
</linearGradient>
<linearGradient id="paint24_linear_38_25175" x1="469.855" y1="371.358" x2="410.247" y2="163.48" gradientUnits="userSpaceOnUse">
<stop stop-color="#1E68F0"/>
<stop offset="1" stop-color="#0CD8E5"/>
</linearGradient>
<linearGradient id="paint25_linear_38_25175" x1="473.655" y1="371.339" x2="410.548" y2="164.927" gradientUnits="userSpaceOnUse">
<stop stop-color="#1E68F0"/>
<stop offset="1" stop-color="#0CD8E5"/>
</linearGradient>
<linearGradient id="paint26_linear_38_25175" x1="477.439" y1="371.291" x2="410.867" y2="166.404" gradientUnits="userSpaceOnUse">
<stop stop-color="#1E68F0"/>
<stop offset="1" stop-color="#0CD8E5"/>
</linearGradient>
<linearGradient id="paint27_linear_38_25175" x1="481.206" y1="371.214" x2="411.203" y2="167.91" gradientUnits="userSpaceOnUse">
<stop stop-color="#1E68F0"/>
<stop offset="1" stop-color="#0CD8E5"/>
</linearGradient>
<linearGradient id="paint28_linear_38_25175" x1="484.958" y1="371.109" x2="411.558" y2="169.446" gradientUnits="userSpaceOnUse">
<stop stop-color="#1E68F0"/>
<stop offset="1" stop-color="#0CD8E5"/>
</linearGradient>
<linearGradient id="paint29_linear_38_25175" x1="488.691" y1="370.976" x2="411.931" y2="171.01" gradientUnits="userSpaceOnUse">
<stop stop-color="#1E68F0"/>
<stop offset="1" stop-color="#0CD8E5"/>
</linearGradient>
<linearGradient id="paint30_linear_38_25175" x1="492.406" y1="370.817" x2="412.323" y2="172.604" gradientUnits="userSpaceOnUse">
<stop stop-color="#1E68F0"/>
<stop offset="1" stop-color="#0CD8E5"/>
</linearGradient>
<linearGradient id="paint31_linear_38_25175" x1="496.103" y1="370.629" x2="412.734" y2="174.224" gradientUnits="userSpaceOnUse">
<stop stop-color="#1E68F0"/>
<stop offset="1" stop-color="#0CD8E5"/>
</linearGradient>
<linearGradient id="paint32_linear_38_25175" x1="499.78" y1="370.416" x2="413.164" y2="175.872" gradientUnits="userSpaceOnUse">
<stop stop-color="#1E68F0"/>
<stop offset="1" stop-color="#0CD8E5"/>
</linearGradient>
<linearGradient id="paint33_linear_38_25175" x1="503.439" y1="370.175" x2="413.615" y2="177.547" gradientUnits="userSpaceOnUse">
<stop stop-color="#1E68F0"/>
<stop offset="1" stop-color="#0CD8E5"/>
</linearGradient>
<linearGradient id="paint34_linear_38_25175" x1="507.077" y1="369.91" x2="414.086" y2="179.25" gradientUnits="userSpaceOnUse">
<stop stop-color="#1E68F0"/>
<stop offset="1" stop-color="#0CD8E5"/>
</linearGradient>
<linearGradient id="paint35_linear_38_25175" x1="510.696" y1="369.618" x2="414.579" y2="180.978" gradientUnits="userSpaceOnUse">
<stop stop-color="#1E68F0"/>
<stop offset="1" stop-color="#0CD8E5"/>
</linearGradient>
<linearGradient id="paint36_linear_38_25175" x1="514.294" y1="369.302" x2="415.093" y2="182.732" gradientUnits="userSpaceOnUse">
<stop stop-color="#1E68F0"/>
<stop offset="1" stop-color="#0CD8E5"/>
</linearGradient>
<linearGradient id="paint37_linear_38_25175" x1="517.869" y1="368.961" x2="415.627" y2="184.511" gradientUnits="userSpaceOnUse">
<stop stop-color="#1E68F0"/>
<stop offset="1" stop-color="#0CD8E5"/>
</linearGradient>
<linearGradient id="paint38_linear_38_25175" x1="521.425" y1="368.596" x2="416.186" y2="186.317" gradientUnits="userSpaceOnUse">
<stop stop-color="#1E68F0"/>
<stop offset="1" stop-color="#0CD8E5"/>
</linearGradient>
<linearGradient id="paint39_linear_38_25175" x1="524.959" y1="368.205" x2="416.767" y2="188.144" gradientUnits="userSpaceOnUse">
<stop stop-color="#1E68F0"/>
<stop offset="1" stop-color="#0CD8E5"/>
</linearGradient>
<linearGradient id="paint40_linear_38_25175" x1="528.473" y1="367.794" x2="417.374" y2="189.998" gradientUnits="userSpaceOnUse">
<stop stop-color="#1E68F0"/>
<stop offset="1" stop-color="#0CD8E5"/>
</linearGradient>
<linearGradient id="paint41_linear_38_25175" x1="531.962" y1="367.358" x2="418.001" y2="191.875" gradientUnits="userSpaceOnUse">
<stop stop-color="#1E68F0"/>
<stop offset="1" stop-color="#0CD8E5"/>
</linearGradient>
<linearGradient id="paint42_linear_38_25175" x1="535.427" y1="366.901" x2="418.652" y2="193.775" gradientUnits="userSpaceOnUse">
<stop stop-color="#1E68F0"/>
<stop offset="1" stop-color="#0CD8E5"/>
</linearGradient>
<linearGradient id="paint43_linear_38_25175" x1="538.871" y1="366.421" x2="419.329" y2="195.698" gradientUnits="userSpaceOnUse">
<stop stop-color="#1E68F0"/>
<stop offset="1" stop-color="#0CD8E5"/>
</linearGradient>
<linearGradient id="paint44_linear_38_25175" x1="542.29" y1="365.92" x2="420.03" y2="197.642" gradientUnits="userSpaceOnUse">
<stop stop-color="#1E68F0"/>
<stop offset="1" stop-color="#0CD8E5"/>
</linearGradient>
<linearGradient id="paint45_linear_38_25175" x1="545.687" y1="365.398" x2="420.756" y2="199.61" gradientUnits="userSpaceOnUse">
<stop stop-color="#1E68F0"/>
<stop offset="1" stop-color="#0CD8E5"/>
</linearGradient>
<linearGradient id="paint46_linear_38_25175" x1="549.059" y1="364.855" x2="421.509" y2="201.597" gradientUnits="userSpaceOnUse">
<stop stop-color="#1E68F0"/>
<stop offset="1" stop-color="#0CD8E5"/>
</linearGradient>
<linearGradient id="paint47_linear_38_25175" x1="552.406" y1="364.291" x2="422.285" y2="203.606" gradientUnits="userSpaceOnUse">
<stop stop-color="#1E68F0"/>
<stop offset="1" stop-color="#0CD8E5"/>
</linearGradient>
<linearGradient id="paint48_linear_38_25175" x1="555.728" y1="363.708" x2="423.088" y2="205.634" gradientUnits="userSpaceOnUse">
<stop stop-color="#1E68F0"/>
<stop offset="1" stop-color="#0CD8E5"/>
</linearGradient>
<linearGradient id="paint49_linear_38_25175" x1="559.024" y1="363.107" x2="423.916" y2="207.683" gradientUnits="userSpaceOnUse">
<stop stop-color="#1E68F0"/>
<stop offset="1" stop-color="#0CD8E5"/>
</linearGradient>
<linearGradient id="paint50_linear_38_25175" x1="562.296" y1="362.486" x2="424.773" y2="209.751" gradientUnits="userSpaceOnUse">
<stop stop-color="#1E68F0"/>
<stop offset="1" stop-color="#0CD8E5"/>
</linearGradient>
<linearGradient id="paint51_linear_38_25175" x1="565.542" y1="361.848" x2="425.655" y2="211.837" gradientUnits="userSpaceOnUse">
<stop stop-color="#1E68F0"/>
<stop offset="1" stop-color="#0CD8E5"/>
</linearGradient>
<linearGradient id="paint52_linear_38_25175" x1="568.762" y1="361.191" x2="426.566" y2="213.942" gradientUnits="userSpaceOnUse">
<stop stop-color="#1E68F0"/>
<stop offset="1" stop-color="#0CD8E5"/>
</linearGradient>
<linearGradient id="paint53_linear_38_25175" x1="571.955" y1="360.517" x2="427.501" y2="216.064" gradientUnits="userSpaceOnUse">
<stop stop-color="#1E68F0"/>
<stop offset="1" stop-color="#0CD8E5"/>
</linearGradient>
<linearGradient id="paint54_linear_38_25175" x1="575.122" y1="359.826" x2="428.467" y2="218.203" gradientUnits="userSpaceOnUse">
<stop stop-color="#1E68F0"/>
<stop offset="1" stop-color="#0CD8E5"/>
</linearGradient>
<linearGradient id="paint55_linear_38_25175" x1="578.262" y1="359.121" x2="429.459" y2="220.36" gradientUnits="userSpaceOnUse">
<stop stop-color="#1E68F0"/>
<stop offset="1" stop-color="#0CD8E5"/>
</linearGradient>
<linearGradient id="paint56_linear_38_25175" x1="581.376" y1="358.398" x2="430.481" y2="222.531" gradientUnits="userSpaceOnUse">
<stop stop-color="#1E68F0"/>
<stop offset="1" stop-color="#0CD8E5"/>
</linearGradient>
<linearGradient id="paint57_linear_38_25175" x1="584.461" y1="357.661" x2="431.529" y2="224.719" gradientUnits="userSpaceOnUse">
<stop stop-color="#1E68F0"/>
<stop offset="1" stop-color="#0CD8E5"/>
</linearGradient>
<linearGradient id="paint58_linear_38_25175" x1="587.52" y1="356.908" x2="432.607" y2="226.921" gradientUnits="userSpaceOnUse">
<stop stop-color="#1E68F0"/>
<stop offset="1" stop-color="#0CD8E5"/>
</linearGradient>
<linearGradient id="paint59_linear_38_25175" x1="590.551" y1="356.143" x2="433.714" y2="229.139" gradientUnits="userSpaceOnUse">
<stop stop-color="#1E68F0"/>
<stop offset="1" stop-color="#0CD8E5"/>
</linearGradient>
<linearGradient id="paint60_linear_38_25175" x1="593.554" y1="355.363" x2="434.85" y2="231.369" gradientUnits="userSpaceOnUse">
<stop stop-color="#1E68F0"/>
<stop offset="1" stop-color="#0CD8E5"/>
</linearGradient>
<linearGradient id="paint61_linear_38_25175" x1="596.528" y1="354.57" x2="436.013" y2="233.614" gradientUnits="userSpaceOnUse">
<stop stop-color="#1E68F0"/>
<stop offset="1" stop-color="#0CD8E5"/>
</linearGradient>
<linearGradient id="paint62_linear_38_25175" x1="599.474" y1="353.766" x2="437.207" y2="235.872" gradientUnits="userSpaceOnUse">
<stop stop-color="#1E68F0"/>
<stop offset="1" stop-color="#0CD8E5"/>
</linearGradient>
<linearGradient id="paint63_linear_38_25175" x1="602.393" y1="352.949" x2="438.431" y2="238.141" gradientUnits="userSpaceOnUse">
<stop stop-color="#1E68F0"/>
<stop offset="1" stop-color="#0CD8E5"/>
</linearGradient>
<linearGradient id="paint64_linear_38_25175" x1="605.284" y1="352.12" x2="439.685" y2="240.422" gradientUnits="userSpaceOnUse">
<stop stop-color="#1E68F0"/>
<stop offset="1" stop-color="#0CD8E5"/>
</linearGradient>
<linearGradient id="paint65_linear_38_25175" x1="608.145" y1="351.279" x2="440.968" y2="242.713" gradientUnits="userSpaceOnUse">
<stop stop-color="#1E68F0"/>
<stop offset="1" stop-color="#0CD8E5"/>
</linearGradient>
<linearGradient id="paint66_linear_38_25175" x1="610.978" y1="350.43" x2="442.282" y2="245.017" gradientUnits="userSpaceOnUse">
<stop stop-color="#1E68F0"/>
<stop offset="1" stop-color="#0CD8E5"/>
</linearGradient>
<linearGradient id="paint67_linear_38_25175" x1="613.78" y1="349.57" x2="443.624" y2="247.33" gradientUnits="userSpaceOnUse">
<stop stop-color="#1E68F0"/>
<stop offset="1" stop-color="#0CD8E5"/>
</linearGradient>
<linearGradient id="paint68_linear_38_25175" x1="616.556" y1="348.7" x2="444.999" y2="249.651" gradientUnits="userSpaceOnUse">
<stop stop-color="#1E68F0"/>
<stop offset="1" stop-color="#0CD8E5"/>
</linearGradient>
<linearGradient id="paint69_linear_38_25175" x1="619.3" y1="347.823" x2="446.401" y2="251.983" gradientUnits="userSpaceOnUse">
<stop stop-color="#1E68F0"/>
<stop offset="1" stop-color="#0CD8E5"/>
</linearGradient>
<linearGradient id="paint70_linear_38_25175" x1="622.018" y1="346.936" x2="447.837" y2="254.322" gradientUnits="userSpaceOnUse">
<stop stop-color="#1E68F0"/>
<stop offset="1" stop-color="#0CD8E5"/>
</linearGradient>
<linearGradient id="paint71_linear_38_25175" x1="624.703" y1="346.042" x2="449.301" y2="256.67" gradientUnits="userSpaceOnUse">
<stop stop-color="#1E68F0"/>
<stop offset="1" stop-color="#0CD8E5"/>
</linearGradient>
<linearGradient id="paint72_linear_38_25175" x1="627.361" y1="345.141" x2="450.797" y2="259.024" gradientUnits="userSpaceOnUse">
<stop stop-color="#1E68F0"/>
<stop offset="1" stop-color="#0CD8E5"/>
</linearGradient>
<linearGradient id="paint73_linear_38_25175" x1="629.989" y1="344.234" x2="452.322" y2="261.386" gradientUnits="userSpaceOnUse">
<stop stop-color="#1E68F0"/>
<stop offset="1" stop-color="#0CD8E5"/>
</linearGradient>
<linearGradient id="paint74_linear_38_25175" x1="632.588" y1="343.319" x2="453.879" y2="263.753" gradientUnits="userSpaceOnUse">
<stop stop-color="#1E68F0"/>
<stop offset="1" stop-color="#0CD8E5"/>
</linearGradient>
<linearGradient id="paint75_linear_38_25175" x1="635.156" y1="342.4" x2="455.466" y2="266.126" gradientUnits="userSpaceOnUse">
<stop stop-color="#1E68F0"/>
<stop offset="1" stop-color="#0CD8E5"/>
</linearGradient>
<linearGradient id="paint76_linear_38_25175" x1="637.696" y1="341.476" x2="457.084" y2="268.504" gradientUnits="userSpaceOnUse">
<stop stop-color="#1E68F0"/>
<stop offset="1" stop-color="#0CD8E5"/>
</linearGradient>
<linearGradient id="paint77_linear_38_25175" x1="640.205" y1="340.548" x2="458.733" y2="270.887" gradientUnits="userSpaceOnUse">
<stop stop-color="#1E68F0"/>
<stop offset="1" stop-color="#0CD8E5"/>
</linearGradient>
<linearGradient id="paint78_linear_38_25175" x1="642.686" y1="339.614" x2="460.413" y2="273.273" gradientUnits="userSpaceOnUse">
<stop stop-color="#1E68F0"/>
<stop offset="1" stop-color="#0CD8E5"/>
</linearGradient>
<linearGradient id="paint79_linear_38_25175" x1="645.137" y1="338.679" x2="462.124" y2="275.662" gradientUnits="userSpaceOnUse">
<stop stop-color="#1E68F0"/>
<stop offset="1" stop-color="#0CD8E5"/>
</linearGradient>
<linearGradient id="paint80_linear_38_25175" x1="647.556" y1="337.739" x2="463.865" y2="278.054" gradientUnits="userSpaceOnUse">
<stop stop-color="#1E68F0"/>
<stop offset="1" stop-color="#0CD8E5"/>
</linearGradient>
<linearGradient id="paint81_linear_38_25175" x1="649.949" y1="336.798" x2="465.638" y2="280.449" gradientUnits="userSpaceOnUse">
<stop stop-color="#1E68F0"/>
<stop offset="1" stop-color="#0CD8E5"/>
</linearGradient>
<linearGradient id="paint82_linear_38_25175" x1="652.31" y1="335.854" x2="467.441" y2="282.844" gradientUnits="userSpaceOnUse">
<stop stop-color="#1E68F0"/>
<stop offset="1" stop-color="#0CD8E5"/>
</linearGradient>
<linearGradient id="paint83_linear_38_25175" x1="654.642" y1="334.911" x2="469.274" y2="285.242" gradientUnits="userSpaceOnUse">
<stop stop-color="#1E68F0"/>
<stop offset="1" stop-color="#0CD8E5"/>
</linearGradient>
<linearGradient id="paint84_linear_38_25175" x1="656.945" y1="333.965" x2="471.139" y2="287.638" gradientUnits="userSpaceOnUse">
<stop stop-color="#1E68F0"/>
<stop offset="1" stop-color="#0CD8E5"/>
</linearGradient>
<linearGradient id="paint85_linear_38_25175" x1="659.218" y1="333.02" x2="473.034" y2="290.036" gradientUnits="userSpaceOnUse">
<stop stop-color="#1E68F0"/>
<stop offset="1" stop-color="#0CD8E5"/>
</linearGradient>
<linearGradient id="paint86_linear_38_25175" x1="661.461" y1="332.076" x2="474.959" y2="292.433" gradientUnits="userSpaceOnUse">
<stop stop-color="#1E68F0"/>
<stop offset="1" stop-color="#0CD8E5"/>
</linearGradient>
<linearGradient id="paint87_linear_38_25175" x1="663.676" y1="331.132" x2="476.916" y2="294.829" gradientUnits="userSpaceOnUse">
<stop stop-color="#1E68F0"/>
<stop offset="1" stop-color="#0CD8E5"/>
</linearGradient>
<linearGradient id="paint88_linear_38_25175" x1="665.861" y1="330.189" x2="478.902" y2="297.223" gradientUnits="userSpaceOnUse">
<stop stop-color="#1E68F0"/>
<stop offset="1" stop-color="#0CD8E5"/>
</linearGradient>
<linearGradient id="paint89_linear_38_25175" x1="668.016" y1="329.248" x2="480.918" y2="299.615" gradientUnits="userSpaceOnUse">
<stop stop-color="#1E68F0"/>
<stop offset="1" stop-color="#0CD8E5"/>
</linearGradient>
<linearGradient id="paint90_linear_38_25175" x1="670.143" y1="328.311" x2="482.964" y2="302.004" gradientUnits="userSpaceOnUse">
<stop stop-color="#1E68F0"/>
<stop offset="1" stop-color="#0CD8E5"/>
</linearGradient>
<linearGradient id="paint91_linear_38_25175" x1="672.24" y1="327.375" x2="485.04" y2="304.39" gradientUnits="userSpaceOnUse">
<stop stop-color="#1E68F0"/>
<stop offset="1" stop-color="#0CD8E5"/>
</linearGradient>
<linearGradient id="paint92_linear_38_25175" x1="674.31" y1="326.444" x2="487.149" y2="306.772" gradientUnits="userSpaceOnUse">
<stop stop-color="#1E68F0"/>
<stop offset="1" stop-color="#0CD8E5"/>
</linearGradient>
<linearGradient id="paint93_linear_38_25175" x1="676.349" y1="325.517" x2="489.284" y2="309.151" gradientUnits="userSpaceOnUse">
<stop stop-color="#1E68F0"/>
<stop offset="1" stop-color="#0CD8E5"/>
</linearGradient>
<linearGradient id="paint94_linear_38_25175" x1="678.361" y1="324.593" x2="491.451" y2="311.523" gradientUnits="userSpaceOnUse">
<stop stop-color="#1E68F0"/>
<stop offset="1" stop-color="#0CD8E5"/>
</linearGradient>
<linearGradient id="paint95_linear_38_25175" x1="680.344" y1="323.676" x2="493.646" y2="313.891" gradientUnits="userSpaceOnUse">
<stop stop-color="#1E68F0"/>
<stop offset="1" stop-color="#0CD8E5"/>
</linearGradient>
<linearGradient id="paint96_linear_38_25175" x1="682.299" y1="322.762" x2="495.871" y2="316.251" gradientUnits="userSpaceOnUse">
<stop stop-color="#1E68F0"/>
<stop offset="1" stop-color="#0CD8E5"/>
</linearGradient>
<linearGradient id="paint97_linear_38_25175" x1="684.228" y1="321.856" x2="498.127" y2="318.607" gradientUnits="userSpaceOnUse">
<stop stop-color="#1E68F0"/>
<stop offset="1" stop-color="#0CD8E5"/>
</linearGradient>
<linearGradient id="paint98_linear_38_25175" x1="686.126" y1="320.956" x2="500.41" y2="320.956" gradientUnits="userSpaceOnUse">
<stop stop-color="#1E68F0"/>
<stop offset="1" stop-color="#0CD8E5"/>
</linearGradient>
<clipPath id="clip0_38_25175">
<rect width="591" height="366" fill="white" transform="translate(171 34)"/>
</clipPath>
</defs>
</svg>
