<svg width="125" height="24" viewBox="0 0 125 24" fill="none" xmlns="http://www.w3.org/2000/svg">
<g clip-path="url(#clip0_36_31132)">
<path d="M18.5231 15.4702C20.4533 15.4702 22.0179 13.9188 22.0179 12.0051C22.0179 10.0914 20.4533 8.54004 18.5231 8.54004C16.593 8.54004 15.0283 10.0914 15.0283 12.0051C15.0283 13.9188 16.593 15.4702 18.5231 15.4702Z" fill="#0053FF"/>
<path d="M16.7805 3.51343V0C13.8722 0.419123 11.2134 1.86254 9.2906 4.06614C7.36779 6.26974 6.30957 9.08616 6.30957 12C6.30957 14.9138 7.36779 17.7302 9.2906 19.9339C11.2134 22.1375 13.8722 23.5809 16.7805 24V20.4865C14.8071 20.0878 13.0334 19.0252 11.7595 17.4787C10.4855 15.9322 9.78967 13.9968 9.78967 12C9.78967 10.0032 10.4855 8.06777 11.7595 6.52126C13.0334 4.97476 14.8071 3.91219 16.7805 3.51343ZM27.1708 3.42706C25.3059 1.57443 22.885 0.371871 20.2718 0V3.51343C22.2451 3.91219 24.0189 4.97476 25.2928 6.52126C26.5668 8.06777 27.2626 10.0032 27.2626 12C27.2626 13.9968 26.5668 15.9322 25.2928 17.4787C24.0189 19.0252 22.2451 20.0878 20.2718 20.4865V24C22.5175 23.6778 24.6285 22.7425 26.3687 21.2987C28.1089 19.855 29.4097 17.9597 30.1256 15.8248C30.8415 13.69 30.9443 11.3997 30.4225 9.21023C29.9007 7.02076 28.7748 5.01838 27.1708 3.42706Z" fill="#0053FF"/>
<path d="M34.5781 8.34524L24.6982 18.1411L27.1695 20.5913L37.0493 10.7954L34.5781 8.34524Z" fill="#0053FF"/>
<path d="M9.87501 3.44923L-0.00488281 13.2451L2.4663 15.6953L12.3462 5.8994L9.87501 3.44923Z" fill="#0053FF"/>
</g>
<g clip-path="url(#clip1_36_31132)">
<path d="M60.8511 4.1001L57.3568 17.644H55.2793L52.6738 7.62092L50.0151 17.644H47.9376L44.4434 4.1001H46.4753L49.096 14.3929L51.823 4.1001H53.6347L56.2934 14.4499L58.99 4.1001H60.8511Z" fill="#27184D"/>
<path d="M69.7872 13.25H63.4786C63.5515 13.9351 63.8572 14.5746 64.3445 15.0616C64.5762 15.2818 64.8492 15.4539 65.1478 15.568C65.4464 15.6821 65.7646 15.7359 66.0841 15.7263C66.513 15.7266 66.9356 15.6232 67.3159 15.4248C67.6962 15.2264 68.0229 14.9389 68.268 14.5869L69.2744 16.0757C68.9384 16.6088 68.4665 17.0427 67.9071 17.3329C67.3275 17.6229 66.6865 17.7688 66.0385 17.7583C65.2093 17.7752 64.3946 17.5393 63.7027 17.0822C63.0132 16.6105 62.4729 15.9516 62.1454 15.1832C61.7662 14.3222 61.5783 13.3892 61.5947 12.4486C61.5802 11.5145 61.7626 10.5879 62.1303 9.72913C62.4427 8.97246 62.9563 8.31573 63.6153 7.83009C64.2382 7.38332 64.9871 7.14652 65.7536 7.15402C66.5073 7.14576 67.2437 7.38013 67.854 7.82249C68.498 8.30369 68.9973 8.95281 69.2972 9.69876C69.6607 10.585 69.8378 11.5365 69.8176 12.4941C69.8176 12.703 69.81 12.9423 69.7872 13.25ZM64.223 9.83168C63.7823 10.3461 63.5163 10.9871 63.4634 11.6623H68.0211C67.9738 10.9933 67.7158 10.3565 67.2843 9.84309C67.0975 9.62285 66.8646 9.4464 66.6021 9.32628C66.3395 9.20616 66.0537 9.14529 65.765 9.14801C65.4749 9.14073 65.1866 9.19679 64.9203 9.31223C64.654 9.42767 64.416 9.59973 64.223 9.81648V9.83168Z" fill="#27184D"/>
<path d="M78.7882 7.83723C79.4322 8.31239 79.9339 8.95466 80.2391 9.6945C80.9432 11.4759 80.9432 13.4583 80.2391 15.2397C79.9372 15.9835 79.435 16.629 78.7882 17.1046C78.1749 17.5424 77.4376 17.7727 76.6841 17.7616C76.1539 17.7643 75.6314 17.6337 75.1649 17.3818C74.6957 17.1184 74.303 16.7375 74.0254 16.2766V17.6135H72.2441V3.27954H74.1242V8.56268C74.4185 8.13636 74.8088 7.78507 75.2636 7.53717C75.7058 7.30345 76.1992 7.1834 76.6993 7.18778C77.4465 7.17958 78.1774 7.4068 78.7882 7.83723ZM78.1843 14.8029C78.6212 14.1 78.8526 13.289 78.8526 12.4614C78.8526 11.6339 78.6212 10.8228 78.1843 10.1199C77.9935 9.84359 77.738 9.61815 77.4401 9.46324C77.1422 9.30833 76.811 9.22866 76.4752 9.23115C76.0385 9.2229 75.6108 9.35613 75.256 9.61095C74.8714 9.90547 74.5746 10.2995 74.3976 10.7504C73.9692 11.8495 73.9692 13.0695 74.3976 14.1686C74.5746 14.6196 74.8714 15.0136 75.256 15.3081C75.61 15.5644 76.0382 15.6978 76.4752 15.6879C76.8093 15.6925 77.1395 15.6157 77.4372 15.4642C77.735 15.3126 77.9914 15.0909 78.1843 14.8181V14.8029Z" fill="#27184D"/>
<path d="M84.2544 17.3899C83.5702 17.1442 82.9534 16.7409 82.4541 16.2125L83.1339 14.2565C83.5893 14.7133 84.1283 15.0782 84.7215 15.3313C85.3179 15.6032 85.9652 15.7456 86.6206 15.7491C87.2443 15.7967 87.865 15.6247 88.3753 15.263C88.5638 15.1093 88.7144 14.9142 88.8152 14.6929C88.916 14.4715 88.9643 14.2299 88.9564 13.9868C88.9708 13.6388 88.8558 13.2979 88.6336 13.0297C88.4093 12.7727 88.1285 12.5712 87.8132 12.441C87.479 12.2966 87.027 12.1371 86.4573 11.9548C85.7883 11.762 85.1356 11.5169 84.5051 11.2218C83.9874 10.9585 83.5465 10.5661 83.2251 10.0824C82.8378 9.44574 82.6512 8.70721 82.6896 7.96303C82.6813 7.25365 82.8442 6.55272 83.1643 5.91966C83.4873 5.30289 83.9855 4.79545 84.5962 4.46121C85.3169 4.07954 86.1246 3.89237 86.9396 3.91811C87.5854 3.91761 88.2269 4.02279 88.8387 4.22953C89.4299 4.41679 89.9784 4.71879 90.4529 5.11827L89.8338 7.07429C89.3952 6.73676 88.9071 6.46901 88.3867 6.2805C87.9203 6.10468 87.4266 6.01213 86.9282 6.00705C86.311 5.9591 85.6977 6.13877 85.2039 6.51218C85.0171 6.67891 84.8695 6.88489 84.7717 7.11537C84.6738 7.34584 84.6282 7.59512 84.638 7.84531C84.623 8.19107 84.7382 8.52989 84.9608 8.79483C85.1887 9.04597 85.4687 9.2443 85.7812 9.37595C86.1155 9.51648 86.5674 9.67596 87.1371 9.85826C87.7998 10.0445 88.4453 10.2873 89.0665 10.5837C89.5858 10.8476 90.029 11.2398 90.3541 11.7231C90.7412 12.3487 90.928 13.0775 90.8896 13.8121C90.8988 14.5179 90.7358 15.2153 90.4149 15.844C90.0887 16.4591 89.5878 16.9639 88.9754 17.2949C88.2519 17.6762 87.4418 17.8633 86.6244 17.838C85.8131 17.84 85.0089 17.688 84.2544 17.3899Z" fill="#27184D"/>
<path d="M93.3276 5.17883C93.1035 4.88029 92.9824 4.51712 92.9824 4.14386C92.9824 3.77061 93.1035 3.40744 93.3276 3.10889C93.4288 2.97784 93.5589 2.87194 93.7078 2.79947C93.8567 2.72699 94.0204 2.68988 94.1859 2.69107C94.3482 2.68671 94.5095 2.71856 94.6579 2.78426C94.8064 2.84995 94.9384 2.94784 95.0443 3.07088C95.2795 3.34793 95.4027 3.7028 95.3899 4.06597C95.4017 4.45212 95.2826 4.83094 95.0519 5.14086C94.9528 5.27709 94.8224 5.3875 94.6717 5.46285C94.521 5.5382 94.3544 5.57628 94.1859 5.57384C94.0222 5.57803 93.8596 5.54459 93.7108 5.47611C93.562 5.40763 93.4309 5.30592 93.3276 5.17883ZM93.2364 7.29814H95.1355V17.6289H93.2364V7.29814Z" fill="#27184D"/>
<path d="M106.173 7.31345V16.0756C106.173 19.7142 104.727 21.5322 101.835 21.5297C101.086 21.5322 100.342 21.4037 99.6364 21.1499C98.9859 20.9257 98.3977 20.5509 97.9197 20.056L98.7629 18.2405C99.1396 18.6293 99.5938 18.9347 100.096 19.1369C100.612 19.3595 101.167 19.4757 101.729 19.4787C102.615 19.4787 103.264 19.2255 103.674 18.7191C104.084 18.2026 104.293 17.4164 104.293 16.3567V15.8136C103.991 16.2476 103.587 16.6 103.115 16.839C102.643 17.0727 102.123 17.1912 101.596 17.1847C100.858 17.1926 100.136 16.9738 99.5263 16.558C98.8861 16.1129 98.3803 15.5007 98.064 14.7881C97.6948 13.9673 97.5119 13.0749 97.5285 12.175C97.5111 11.2787 97.694 10.3898 98.064 9.57329C98.3806 8.86594 98.8867 8.25996 99.5263 7.82238C100.138 7.41207 100.86 7.19627 101.596 7.20329C102.148 7.19891 102.693 7.32928 103.184 7.5831C103.679 7.84624 104.093 8.24037 104.38 8.72252V7.35142L106.173 7.31345ZM103.636 14.2943C104.113 13.6866 104.357 12.928 104.323 12.156C104.355 11.3935 104.111 10.6451 103.636 10.048C103.418 9.79319 103.148 9.58858 102.844 9.44825C102.54 9.30791 102.209 9.23521 101.873 9.23521C101.538 9.23521 101.207 9.30791 100.903 9.44825C100.599 9.58858 100.329 9.79319 100.111 10.048C99.6369 10.6455 99.3942 11.394 99.4275 12.156C99.3926 12.9276 99.6351 13.6861 100.111 14.2943C100.325 14.5551 100.594 14.7651 100.899 14.9093C101.203 15.0536 101.536 15.1284 101.873 15.1284C102.211 15.1284 102.544 15.0536 102.848 14.9093C103.153 14.7651 103.422 14.5551 103.636 14.2943Z" fill="#27184D"/>
<path d="M116.25 8.33856C116.863 9.09818 117.169 10.2262 117.169 11.7227V17.6439H115.27V12.0151C115.318 11.3003 115.144 10.5881 114.772 9.97556C114.613 9.75218 114.4 9.57223 114.153 9.45216C113.906 9.33209 113.634 9.27568 113.359 9.28808C113.043 9.28482 112.731 9.3585 112.45 9.50274C112.169 9.64699 111.927 9.8575 111.745 10.1161C111.304 10.802 111.094 11.6112 111.145 12.4253V17.6515H109.246V3.27954H111.145V8.5057C111.44 8.09137 111.831 7.75506 112.285 7.52581C112.758 7.29781 113.278 7.18213 113.804 7.18778C114.274 7.17212 114.74 7.26829 115.165 7.46837C115.591 7.66845 115.962 7.96669 116.25 8.33856Z" fill="#27184D"/>
<path d="M125 17.0821C124.775 17.3155 124.5 17.4936 124.195 17.6024C123.873 17.7199 123.534 17.7791 123.192 17.7771C122.805 17.7993 122.418 17.7304 122.063 17.576C121.707 17.4217 121.393 17.1861 121.145 16.8884C120.664 16.2959 120.422 15.4312 120.419 14.2943V9.32261H119.094V7.38935H120.419V5.03076H122.318V7.38935H124.472V9.32261H122.303V14.2373C122.279 14.6374 122.378 15.0353 122.588 15.3767C122.684 15.5038 122.809 15.6051 122.954 15.6715C123.098 15.7378 123.257 15.767 123.416 15.7565C123.612 15.7614 123.806 15.7261 123.988 15.653C124.169 15.5798 124.334 15.4703 124.472 15.3311L125 17.0821Z" fill="#27184D"/>
</g>
<defs>
<clipPath id="clip0_36_31132">
<rect width="37.0526" height="24" fill="white"/>
</clipPath>
<clipPath id="clip1_36_31132">
<rect width="80.5724" height="18.8233" fill="white" transform="translate(44.4277 2.70654)"/>
</clipPath>
</defs>
</svg>
