<?xml version="1.0" encoding="UTF-8"?>
<svg width="143.48mm" height="89.378mm" version="1.1" viewBox="0 0 143.48 89.378" xmlns="http://www.w3.org/2000/svg">
    <g transform="translate(-28.046 -12.007)">
        <g transform="matrix(.50319 0 0 .44541 -222.32 -77.075)" clip-rule="evenodd" fill="#fff" fill-opacity="1" fill-rule="evenodd" stroke-linejoin="round" stroke-miterlimit="1.4142">
            <g fill="#fff" fill-opacity="1">
                <path d="m640 253.79 45.974 46.214-45.974 46.214-45.974-46.214z"/>
                <path d="m586.36 200 29.759 29.63-68.528 69.723s67.235 68.508 68.509 69.807c0.011 0.01 0.011 0.027 0 0.037-0.857 0.85-31.056 30.803-31.056 30.803l-80.219-82.09s-6.585-7.564-7.215-17.247c-0.63-9.682 6.158-18.365 6.158-18.365z"/>
                <g transform="matrix(-1 0 0 1 1280.3 .66344)">
                    <path d="m586.36 200 29.759 29.63-68.528 69.723s67.235 68.508 68.509 69.807c0.011 0.01 0.011 0.027 0 0.037-0.857 0.85-31.056 30.803-31.056 30.803l-80.219-82.09s-6.585-7.564-7.215-17.247c-0.63-9.682 6.158-18.365 6.158-18.365z" fill="#fff" fill-opacity="1"/>
                </g>
            </g>
        </g>
    </g>
</svg>
